<?xml version="1.0" standalone="no"?><!DOCTYPE svg PUBLIC "-//W3C//DTD SVG 1.1//EN" "http://www.w3.org/Graphics/SVG/1.1/DTD/svg11.dtd"><svg t="1691659920968" class="icon" viewBox="0 0 1024 1024" version="1.1" xmlns="http://www.w3.org/2000/svg" p-id="17517" xmlns:xlink="http://www.w3.org/1999/xlink" width="16" height="16"><path d="M756.363636 546.909091h-209.454545v209.454545a34.909091 34.909091 0 1 1-69.818182 0v-209.454545h-209.454545a34.909091 34.909091 0 1 1 0-69.818182h209.454545v-209.454545a34.909091 34.909091 0 1 1 69.818182 0v209.454545h209.454545a34.909091 34.909091 0 0 1 0 69.818182M884.363636 46.545455H139.636364C88.436364 46.545455 46.545455 88.436364 46.545455 139.636364v744.727272c0 51.2 41.890909 93.090909 93.090909 93.090909h744.727272c51.2 0 93.090909-41.890909 93.090909-93.090909V139.636364c0-51.2-41.890909-93.090909-93.090909-93.090909" fill="#eb5643" p-id="17518"></path></svg>