<svg width="800" height="600" xmlns="http://www.w3.org/2000/svg">
 <g id="Layer_1">
  <title>Layer 1</title>
  <path stroke="#000" id="svg_1" d="m247.65027,298.60733c5.35984,-11.22235 26.35988,0 0,14.42874c-26.35988,-14.42874 -5.35984,-25.65109 0,-14.42874z" fill="#fff"/>
  <path id="svg_2" d="m264.66021,487.44392c10.51353,-27.76056 51.70587,0 0,35.69215l0,-35.69215z" stroke="#000" fill="#fff"/>
  <path fill="#fff" stroke="#000" d="m490.53999,225.66442l25.97388,0l8.02613,-27.11966l8.02613,27.11966l25.97387,0l-21.01327,16.76068l8.02654,27.11966l-21.01328,-16.76114l-21.01327,16.76114l8.02654,-27.11966l-21.01328,-16.76068l0.00001,0z" id="svg_3"/>
  <path transform="rotate(8.61855 284.57 327.607)" id="svg_4" d="m284.07002,327.44042l0.38196,0l0.11803,-0.54067l0.11803,0.54067l0.38196,0l-0.30901,0.33415l0.11804,0.54067l-0.30901,-0.33416l-0.30901,0.33416l0.11804,-0.54067l-0.30901,-0.33415z" stroke="#000" fill="#fff"/>
 </g>

</svg>